<svg xmlns="http://www.w3.org/2000/svg" xmlns:xlink="http://www.w3.org/1999/xlink"
    viewBox="0 0 600 600" width="600" height="600" preserveAspectRatio="xMidYMid meet"
    style="width: 100%; height: 100%; transform: translate3d(0px, 0px, 0px); content-visibility: visible;">
    <defs>
        <clipPath id="__lottie_element_3605">
            <rect width="600" height="600" x="0" y="0"></rect>
        </clipPath>
        <clipPath id="__lottie_element_3607">
            <path d="M0,0 L600,0 L600,600 L0,600z"></path>
        </clipPath>
        <clipPath id="__lottie_element_3623">
            <path d="M0,0 L600,0 L600,600 L0,600z"></path>
        </clipPath>
    </defs>
    <g clip-path="url(#__lottie_element_3605)">
        <g clip-path="url(#__lottie_element_3623)" transform="matrix(1,0,0,1,0,0)" opacity="1"
            style="display: block;">
            <g transform="matrix(1,0,0,1.080649971961975,300,288.5)" opacity="1"
                style="display: block;">
                <g opacity="1" transform="matrix(1,0,0,1,0,0)">
                    <path stroke-linecap="butt" stroke-linejoin="miter" fill-opacity="0"
                        stroke-miterlimit="4" stroke="rgb(120,134,164)" stroke-opacity="1"
                        stroke-width="41" d=" M-70,-31 C-70,-31 -70,184 -70,184"></path>
                </g>
            </g>
            <g transform="matrix(30,0,0,30,335.5320129394531,299.9930114746094)" opacity="1"
                style="display: block;">
                <g opacity="1" transform="matrix(1,0,0,1,0,0)">
                    <g opacity="1" transform="matrix(1,0,0,1,0,0)">
                        <path stroke-linecap="butt" stroke-linejoin="round" fill-opacity="0"
                            stroke="rgb(120,134,164)" stroke-opacity="1" stroke-width="1.4"
                            d=" M0.453000009059906,-5.868000030517578 C-0.492000013589859,-5.934000015258789 -1.0089999437332153,-5.4670000076293945 -1.0160000324249268,-4.493000030517578 C-1.0839999914169312,-3.11299991607666 -1.3589999675750732,-2.321000099182129 -2.0290000438690186,-1.6749999523162842 C-2.259999990463257,-1.475000023841858 -2.625999927520752,-1.2209999561309814 -2.9800000190734863,-1.0980000495910645 C-3.119999885559082,-1.062000036239624 -3.36299991607666,-1.0119999647140503 -3.4519999027252197,-1.0099999904632568 C-3.4519999027252197,-1.0099999904632568 -4.763999938964844,-1.0099999904632568 -4.763999938964844,-1.0099999904632568 C-5.440000057220459,-1.0099999904632568 -5.854000091552734,-0.531000018119812 -5.854000091552734,0.13099999725818634 C-5.854000091552734,0.13099999725818634 -5.854000091552734,4.802000045776367 -5.854000091552734,4.802000045776367 C-5.765999794006348,5.300000190734863 -5.35099983215332,5.684000015258789 -4.765999794006348,5.666999816894531 C-4.765999794006348,5.666999816894531 -2.9749999046325684,5.659999847412109 -2.9749999046325684,5.659999847412109 C-2.9749999046325684,5.659999847412109 -2.882999897003174,5.666999816894531 -2.882999897003174,5.666999816894531 C-2.882999897003174,5.666999816894531 2.130000114440918,5.666999816894531 2.130000114440918,5.666999816894531 C3.0280001163482666,5.617000102996826 3.3410000801086426,5.2870001792907715 3.884999990463257,4.89900016784668 C3.884999990463257,4.89900016784668 4.249000072479248,4.493000030517578 4.249000072479248,4.493000030517578 C4.357999801635742,4.3420000076293945 4.460999965667725,4.196000099182129 4.5279998779296875,3.996000051498413 C4.716000080108643,3.622999906539917 4.894000053405762,3.2109999656677246 5.107999801635742,2.615999937057495 C5.322000026702881,2.0179998874664307 5.336999893188477,2.0450000762939453 5.461999893188477,1.5099999904632568 C5.515999794006348,1.25 5.636000156402588,0.7279999852180481 5.6479997634887695,0.5809999704360962 C5.6479997634887695,0.5809999704360962 5.660999774932861,0.2549999952316284 5.660999774932861,0.2549999952316284 C5.76200008392334,-0.8460000157356262 5.178999900817871,-1.687000036239624 3.944000005722046,-1.8009999990463257 C3.944000005722046,-1.8009999990463257 1.6710000038146973,-1.812000036239624 1.6710000038146973,-1.812000036239624 C1.6710000038146973,-1.812000036239624 1.9819999933242798,-2.687999963760376 1.9819999933242798,-2.687999963760376 C2.059000015258789,-2.997999906539917 2.1070001125335693,-3.2990000247955322 2.1070001125335693,-3.7170000076293945 C2.1070001125335693,-4.932000160217285 1.565999984741211,-5.607999801635742 0.734000027179718,-5.866000175476074 C0.734000027179718,-5.866000175476074 0.453000009059906,-5.868000030517578 0.453000009059906,-5.868000030517578z"></path>
                    </g>
                </g>
            </g>
            <g style="display: block;" transform="matrix(1,0,0,1.080649971961975,300,288.5)"
                opacity="1.3605719808971763e-8">
                <g opacity="1" transform="matrix(1,0,0,1,0,0)">
                    <path stroke-linecap="butt" stroke-linejoin="miter" fill-opacity="0"
                        stroke-miterlimit="4" stroke="rgb(73,85,245)" stroke-opacity="1"
                        stroke-width="41" d=" M-70,-31 C-70,-31 -70,184 -70,184"></path>
                </g>
            </g>
            <g style="display: block;"
                transform="matrix(30,0,0,30,335.5320129394531,299.9930114746094)"
                opacity="1.3605719808971763e-8">
                <g opacity="1" transform="matrix(1,0,0,1,0,0)">
                    <g opacity="1" transform="matrix(1,0,0,1,0,0)">
                        <path stroke-linecap="butt" stroke-linejoin="round" fill-opacity="0"
                            stroke="rgb(73,85,245)" stroke-opacity="1" stroke-width="1.4"
                            d=" M0.453000009059906,-5.868000030517578 C-0.492000013589859,-5.934000015258789 -1.0089999437332153,-5.4670000076293945 -1.0160000324249268,-4.493000030517578 C-1.0839999914169312,-3.11299991607666 -1.3589999675750732,-2.321000099182129 -2.0290000438690186,-1.6749999523162842 C-2.259999990463257,-1.475000023841858 -2.625999927520752,-1.2209999561309814 -2.9800000190734863,-1.0980000495910645 C-3.119999885559082,-1.062000036239624 -3.36299991607666,-1.0119999647140503 -3.4519999027252197,-1.0099999904632568 C-3.4519999027252197,-1.0099999904632568 -4.763999938964844,-1.0099999904632568 -4.763999938964844,-1.0099999904632568 C-5.440000057220459,-1.0099999904632568 -5.854000091552734,-0.531000018119812 -5.854000091552734,0.13099999725818634 C-5.854000091552734,0.13099999725818634 -5.854000091552734,4.802000045776367 -5.854000091552734,4.802000045776367 C-5.765999794006348,5.300000190734863 -5.35099983215332,5.684000015258789 -4.765999794006348,5.666999816894531 C-4.765999794006348,5.666999816894531 -2.9749999046325684,5.659999847412109 -2.9749999046325684,5.659999847412109 C-2.9749999046325684,5.659999847412109 -2.882999897003174,5.666999816894531 -2.882999897003174,5.666999816894531 C-2.882999897003174,5.666999816894531 2.130000114440918,5.666999816894531 2.130000114440918,5.666999816894531 C3.0280001163482666,5.617000102996826 3.3410000801086426,5.2870001792907715 3.884999990463257,4.89900016784668 C3.884999990463257,4.89900016784668 4.249000072479248,4.493000030517578 4.249000072479248,4.493000030517578 C4.357999801635742,4.3420000076293945 4.460999965667725,4.196000099182129 4.5279998779296875,3.996000051498413 C4.716000080108643,3.622999906539917 4.894000053405762,3.2109999656677246 5.107999801635742,2.615999937057495 C5.322000026702881,2.0179998874664307 5.336999893188477,2.0450000762939453 5.461999893188477,1.5099999904632568 C5.515999794006348,1.25 5.636000156402588,0.7279999852180481 5.6479997634887695,0.5809999704360962 C5.6479997634887695,0.5809999704360962 5.660999774932861,0.2549999952316284 5.660999774932861,0.2549999952316284 C5.76200008392334,-0.8460000157356262 5.178999900817871,-1.687000036239624 3.944000005722046,-1.8009999990463257 C3.944000005722046,-1.8009999990463257 1.6710000038146973,-1.812000036239624 1.6710000038146973,-1.812000036239624 C1.6710000038146973,-1.812000036239624 1.9819999933242798,-2.687999963760376 1.9819999933242798,-2.687999963760376 C2.059000015258789,-2.997999906539917 2.1070001125335693,-3.2990000247955322 2.1070001125335693,-3.7170000076293945 C2.1070001125335693,-4.932000160217285 1.565999984741211,-5.607999801635742 0.734000027179718,-5.866000175476074 C0.734000027179718,-5.866000175476074 0.453000009059906,-5.868000030517578 0.453000009059906,-5.868000030517578z"></path>
                    </g>
                </g>
            </g>
        </g>
        <g clip-path="url(#__lottie_element_3607)" style="display: none;">
            <g style="display: none;">
                <g>
                    <path stroke-linecap="butt" stroke-linejoin="miter" fill-opacity="0"
                        stroke-miterlimit="4"></path>
                </g>
            </g>
            <g style="display: none;">
                <g>
                    <g>
                        <path stroke-linecap="butt" stroke-linejoin="round" fill-opacity="0"></path>
                    </g>
                </g>
            </g>
            <g style="display: none;">
                <g>
                    <g>
                        <g>
                            <path></path>
                        </g>
                    </g>
                </g>
            </g>
        </g>
    </g>
</svg>